<svg version="1.1" xmlns="http://www.w3.org/2000/svg" xmlns:xlink="http://www.w3.org/1999/xlink" width="1100.8388671875" height="646"><defs/><g><text fill="#eeeeee" stroke="none" font-family="Arial" font-size="24px" font-style="normal" font-weight="normal" text-decoration="none" x="0" y="0">UNREGISTERED</text><text fill="#eeeeee" stroke="none" font-family="Arial" font-size="24px" font-style="normal" font-weight="normal" text-decoration="none" x="0" y="30">UNREGISTERED</text><text fill="#eeeeee" stroke="none" font-family="Arial" font-size="24px" font-style="normal" font-weight="normal" text-decoration="none" x="0" y="60">UNREGISTERED</text><text fill="#eeeeee" stroke="none" font-family="Arial" font-size="24px" font-style="normal" font-weight="normal" text-decoration="none" x="0" y="90">UNREGISTERED</text><text fill="#eeeeee" stroke="none" font-family="Arial" font-size="24px" font-style="normal" font-weight="normal" text-decoration="none" x="0" y="120">UNREGISTERED</text><text fill="#eeeeee" stroke="none" font-family="Arial" font-size="24px" font-style="normal" font-weight="normal" text-decoration="none" x="0" y="150">UNREGISTERED</text><text fill="#eeeeee" stroke="none" font-family="Arial" font-size="24px" font-style="normal" font-weight="normal" text-decoration="none" x="0" y="180">UNREGISTERED</text><text fill="#eeeeee" stroke="none" font-family="Arial" font-size="24px" font-style="normal" font-weight="normal" text-decoration="none" x="0" y="210">UNREGISTERED</text><text fill="#eeeeee" stroke="none" font-family="Arial" font-size="24px" font-style="normal" font-weight="normal" text-decoration="none" x="0" y="240">UNREGISTERED</text><text fill="#eeeeee" stroke="none" font-family="Arial" font-size="24px" font-style="normal" font-weight="normal" text-decoration="none" x="0" y="270">UNREGISTERED</text><text fill="#eeeeee" stroke="none" font-family="Arial" font-size="24px" font-style="normal" font-weight="normal" text-decoration="none" x="0" y="300">UNREGISTERED</text><text fill="#eeeeee" stroke="none" font-family="Arial" font-size="24px" font-style="normal" font-weight="normal" text-decoration="none" x="0" y="330">UNREGISTERED</text><text fill="#eeeeee" stroke="none" font-family="Arial" font-size="24px" font-style="normal" font-weight="normal" text-decoration="none" x="0" y="360">UNREGISTERED</text><text fill="#eeeeee" stroke="none" font-family="Arial" font-size="24px" font-style="normal" font-weight="normal" text-decoration="none" x="0" y="390">UNREGISTERED</text><text fill="#eeeeee" stroke="none" font-family="Arial" font-size="24px" font-style="normal" font-weight="normal" text-decoration="none" x="0" y="420">UNREGISTERED</text><text fill="#eeeeee" stroke="none" font-family="Arial" font-size="24px" font-style="normal" font-weight="normal" text-decoration="none" x="0" y="450">UNREGISTERED</text><text fill="#eeeeee" stroke="none" font-family="Arial" font-size="24px" font-style="normal" font-weight="normal" text-decoration="none" x="0" y="480">UNREGISTERED</text><text fill="#eeeeee" stroke="none" font-family="Arial" font-size="24px" font-style="normal" font-weight="normal" text-decoration="none" x="0" y="510">UNREGISTERED</text><text fill="#eeeeee" stroke="none" font-family="Arial" font-size="24px" font-style="normal" font-weight="normal" text-decoration="none" x="0" y="540">UNREGISTERED</text><text fill="#eeeeee" stroke="none" font-family="Arial" font-size="24px" font-style="normal" font-weight="normal" text-decoration="none" x="0" y="570">UNREGISTERED</text><text fill="#eeeeee" stroke="none" font-family="Arial" font-size="24px" font-style="normal" font-weight="normal" text-decoration="none" x="0" y="600">UNREGISTERED</text><text fill="#eeeeee" stroke="none" font-family="Arial" font-size="24px" font-style="normal" font-weight="normal" text-decoration="none" x="0" y="630">UNREGISTERED</text><text fill="#eeeeee" stroke="none" font-family="Arial" font-size="24px" font-style="normal" font-weight="normal" text-decoration="none" x="200" y="0">UNREGISTERED</text><text fill="#eeeeee" stroke="none" font-family="Arial" font-size="24px" font-style="normal" font-weight="normal" text-decoration="none" x="200" y="30">UNREGISTERED</text><text fill="#eeeeee" stroke="none" font-family="Arial" font-size="24px" font-style="normal" font-weight="normal" text-decoration="none" x="200" y="60">UNREGISTERED</text><text fill="#eeeeee" stroke="none" font-family="Arial" font-size="24px" font-style="normal" font-weight="normal" text-decoration="none" x="200" y="90">UNREGISTERED</text><text fill="#eeeeee" stroke="none" font-family="Arial" font-size="24px" font-style="normal" font-weight="normal" text-decoration="none" x="200" y="120">UNREGISTERED</text><text fill="#eeeeee" stroke="none" font-family="Arial" font-size="24px" font-style="normal" font-weight="normal" text-decoration="none" x="200" y="150">UNREGISTERED</text><text fill="#eeeeee" stroke="none" font-family="Arial" font-size="24px" font-style="normal" font-weight="normal" text-decoration="none" x="200" y="180">UNREGISTERED</text><text fill="#eeeeee" stroke="none" font-family="Arial" font-size="24px" font-style="normal" font-weight="normal" text-decoration="none" x="200" y="210">UNREGISTERED</text><text fill="#eeeeee" stroke="none" font-family="Arial" font-size="24px" font-style="normal" font-weight="normal" text-decoration="none" x="200" y="240">UNREGISTERED</text><text fill="#eeeeee" stroke="none" font-family="Arial" font-size="24px" font-style="normal" font-weight="normal" text-decoration="none" x="200" y="270">UNREGISTERED</text><text fill="#eeeeee" stroke="none" font-family="Arial" font-size="24px" font-style="normal" font-weight="normal" text-decoration="none" x="200" y="300">UNREGISTERED</text><text fill="#eeeeee" stroke="none" font-family="Arial" font-size="24px" font-style="normal" font-weight="normal" text-decoration="none" x="200" y="330">UNREGISTERED</text><text fill="#eeeeee" stroke="none" font-family="Arial" font-size="24px" font-style="normal" font-weight="normal" text-decoration="none" x="200" y="360">UNREGISTERED</text><text fill="#eeeeee" stroke="none" font-family="Arial" font-size="24px" font-style="normal" font-weight="normal" text-decoration="none" x="200" y="390">UNREGISTERED</text><text fill="#eeeeee" stroke="none" font-family="Arial" font-size="24px" font-style="normal" font-weight="normal" text-decoration="none" x="200" y="420">UNREGISTERED</text><text fill="#eeeeee" stroke="none" font-family="Arial" font-size="24px" font-style="normal" font-weight="normal" text-decoration="none" x="200" y="450">UNREGISTERED</text><text fill="#eeeeee" stroke="none" font-family="Arial" font-size="24px" font-style="normal" font-weight="normal" text-decoration="none" x="200" y="480">UNREGISTERED</text><text fill="#eeeeee" stroke="none" font-family="Arial" font-size="24px" font-style="normal" font-weight="normal" text-decoration="none" x="200" y="510">UNREGISTERED</text><text fill="#eeeeee" stroke="none" font-family="Arial" font-size="24px" font-style="normal" font-weight="normal" text-decoration="none" x="200" y="540">UNREGISTERED</text><text fill="#eeeeee" stroke="none" font-family="Arial" font-size="24px" font-style="normal" font-weight="normal" text-decoration="none" x="200" y="570">UNREGISTERED</text><text fill="#eeeeee" stroke="none" font-family="Arial" font-size="24px" font-style="normal" font-weight="normal" text-decoration="none" x="200" y="600">UNREGISTERED</text><text fill="#eeeeee" stroke="none" font-family="Arial" font-size="24px" font-style="normal" font-weight="normal" text-decoration="none" x="200" y="630">UNREGISTERED</text><text fill="#eeeeee" stroke="none" font-family="Arial" font-size="24px" font-style="normal" font-weight="normal" text-decoration="none" x="400" y="0">UNREGISTERED</text><text fill="#eeeeee" stroke="none" font-family="Arial" font-size="24px" font-style="normal" font-weight="normal" text-decoration="none" x="400" y="30">UNREGISTERED</text><text fill="#eeeeee" stroke="none" font-family="Arial" font-size="24px" font-style="normal" font-weight="normal" text-decoration="none" x="400" y="60">UNREGISTERED</text><text fill="#eeeeee" stroke="none" font-family="Arial" font-size="24px" font-style="normal" font-weight="normal" text-decoration="none" x="400" y="90">UNREGISTERED</text><text fill="#eeeeee" stroke="none" font-family="Arial" font-size="24px" font-style="normal" font-weight="normal" text-decoration="none" x="400" y="120">UNREGISTERED</text><text fill="#eeeeee" stroke="none" font-family="Arial" font-size="24px" font-style="normal" font-weight="normal" text-decoration="none" x="400" y="150">UNREGISTERED</text><text fill="#eeeeee" stroke="none" font-family="Arial" font-size="24px" font-style="normal" font-weight="normal" text-decoration="none" x="400" y="180">UNREGISTERED</text><text fill="#eeeeee" stroke="none" font-family="Arial" font-size="24px" font-style="normal" font-weight="normal" text-decoration="none" x="400" y="210">UNREGISTERED</text><text fill="#eeeeee" stroke="none" font-family="Arial" font-size="24px" font-style="normal" font-weight="normal" text-decoration="none" x="400" y="240">UNREGISTERED</text><text fill="#eeeeee" stroke="none" font-family="Arial" font-size="24px" font-style="normal" font-weight="normal" text-decoration="none" x="400" y="270">UNREGISTERED</text><text fill="#eeeeee" stroke="none" font-family="Arial" font-size="24px" font-style="normal" font-weight="normal" text-decoration="none" x="400" y="300">UNREGISTERED</text><text fill="#eeeeee" stroke="none" font-family="Arial" font-size="24px" font-style="normal" font-weight="normal" text-decoration="none" x="400" y="330">UNREGISTERED</text><text fill="#eeeeee" stroke="none" font-family="Arial" font-size="24px" font-style="normal" font-weight="normal" text-decoration="none" x="400" y="360">UNREGISTERED</text><text fill="#eeeeee" stroke="none" font-family="Arial" font-size="24px" font-style="normal" font-weight="normal" text-decoration="none" x="400" y="390">UNREGISTERED</text><text fill="#eeeeee" stroke="none" font-family="Arial" font-size="24px" font-style="normal" font-weight="normal" text-decoration="none" x="400" y="420">UNREGISTERED</text><text fill="#eeeeee" stroke="none" font-family="Arial" font-size="24px" font-style="normal" font-weight="normal" text-decoration="none" x="400" y="450">UNREGISTERED</text><text fill="#eeeeee" stroke="none" font-family="Arial" font-size="24px" font-style="normal" font-weight="normal" text-decoration="none" x="400" y="480">UNREGISTERED</text><text fill="#eeeeee" stroke="none" font-family="Arial" font-size="24px" font-style="normal" font-weight="normal" text-decoration="none" x="400" y="510">UNREGISTERED</text><text fill="#eeeeee" stroke="none" font-family="Arial" font-size="24px" font-style="normal" font-weight="normal" text-decoration="none" x="400" y="540">UNREGISTERED</text><text fill="#eeeeee" stroke="none" font-family="Arial" font-size="24px" font-style="normal" font-weight="normal" text-decoration="none" x="400" y="570">UNREGISTERED</text><text fill="#eeeeee" stroke="none" font-family="Arial" font-size="24px" font-style="normal" font-weight="normal" text-decoration="none" x="400" y="600">UNREGISTERED</text><text fill="#eeeeee" stroke="none" font-family="Arial" font-size="24px" font-style="normal" font-weight="normal" text-decoration="none" x="400" y="630">UNREGISTERED</text><text fill="#eeeeee" stroke="none" font-family="Arial" font-size="24px" font-style="normal" font-weight="normal" text-decoration="none" x="600" y="0">UNREGISTERED</text><text fill="#eeeeee" stroke="none" font-family="Arial" font-size="24px" font-style="normal" font-weight="normal" text-decoration="none" x="600" y="30">UNREGISTERED</text><text fill="#eeeeee" stroke="none" font-family="Arial" font-size="24px" font-style="normal" font-weight="normal" text-decoration="none" x="600" y="60">UNREGISTERED</text><text fill="#eeeeee" stroke="none" font-family="Arial" font-size="24px" font-style="normal" font-weight="normal" text-decoration="none" x="600" y="90">UNREGISTERED</text><text fill="#eeeeee" stroke="none" font-family="Arial" font-size="24px" font-style="normal" font-weight="normal" text-decoration="none" x="600" y="120">UNREGISTERED</text><text fill="#eeeeee" stroke="none" font-family="Arial" font-size="24px" font-style="normal" font-weight="normal" text-decoration="none" x="600" y="150">UNREGISTERED</text><text fill="#eeeeee" stroke="none" font-family="Arial" font-size="24px" font-style="normal" font-weight="normal" text-decoration="none" x="600" y="180">UNREGISTERED</text><text fill="#eeeeee" stroke="none" font-family="Arial" font-size="24px" font-style="normal" font-weight="normal" text-decoration="none" x="600" y="210">UNREGISTERED</text><text fill="#eeeeee" stroke="none" font-family="Arial" font-size="24px" font-style="normal" font-weight="normal" text-decoration="none" x="600" y="240">UNREGISTERED</text><text fill="#eeeeee" stroke="none" font-family="Arial" font-size="24px" font-style="normal" font-weight="normal" text-decoration="none" x="600" y="270">UNREGISTERED</text><text fill="#eeeeee" stroke="none" font-family="Arial" font-size="24px" font-style="normal" font-weight="normal" text-decoration="none" x="600" y="300">UNREGISTERED</text><text fill="#eeeeee" stroke="none" font-family="Arial" font-size="24px" font-style="normal" font-weight="normal" text-decoration="none" x="600" y="330">UNREGISTERED</text><text fill="#eeeeee" stroke="none" font-family="Arial" font-size="24px" font-style="normal" font-weight="normal" text-decoration="none" x="600" y="360">UNREGISTERED</text><text fill="#eeeeee" stroke="none" font-family="Arial" font-size="24px" font-style="normal" font-weight="normal" text-decoration="none" x="600" y="390">UNREGISTERED</text><text fill="#eeeeee" stroke="none" font-family="Arial" font-size="24px" font-style="normal" font-weight="normal" text-decoration="none" x="600" y="420">UNREGISTERED</text><text fill="#eeeeee" stroke="none" font-family="Arial" font-size="24px" font-style="normal" font-weight="normal" text-decoration="none" x="600" y="450">UNREGISTERED</text><text fill="#eeeeee" stroke="none" font-family="Arial" font-size="24px" font-style="normal" font-weight="normal" text-decoration="none" x="600" y="480">UNREGISTERED</text><text fill="#eeeeee" stroke="none" font-family="Arial" font-size="24px" font-style="normal" font-weight="normal" text-decoration="none" x="600" y="510">UNREGISTERED</text><text fill="#eeeeee" stroke="none" font-family="Arial" font-size="24px" font-style="normal" font-weight="normal" text-decoration="none" x="600" y="540">UNREGISTERED</text><text fill="#eeeeee" stroke="none" font-family="Arial" font-size="24px" font-style="normal" font-weight="normal" text-decoration="none" x="600" y="570">UNREGISTERED</text><text fill="#eeeeee" stroke="none" font-family="Arial" font-size="24px" font-style="normal" font-weight="normal" text-decoration="none" x="600" y="600">UNREGISTERED</text><text fill="#eeeeee" stroke="none" font-family="Arial" font-size="24px" font-style="normal" font-weight="normal" text-decoration="none" x="600" y="630">UNREGISTERED</text><text fill="#eeeeee" stroke="none" font-family="Arial" font-size="24px" font-style="normal" font-weight="normal" text-decoration="none" x="800" y="0">UNREGISTERED</text><text fill="#eeeeee" stroke="none" font-family="Arial" font-size="24px" font-style="normal" font-weight="normal" text-decoration="none" x="800" y="30">UNREGISTERED</text><text fill="#eeeeee" stroke="none" font-family="Arial" font-size="24px" font-style="normal" font-weight="normal" text-decoration="none" x="800" y="60">UNREGISTERED</text><text fill="#eeeeee" stroke="none" font-family="Arial" font-size="24px" font-style="normal" font-weight="normal" text-decoration="none" x="800" y="90">UNREGISTERED</text><text fill="#eeeeee" stroke="none" font-family="Arial" font-size="24px" font-style="normal" font-weight="normal" text-decoration="none" x="800" y="120">UNREGISTERED</text><text fill="#eeeeee" stroke="none" font-family="Arial" font-size="24px" font-style="normal" font-weight="normal" text-decoration="none" x="800" y="150">UNREGISTERED</text><text fill="#eeeeee" stroke="none" font-family="Arial" font-size="24px" font-style="normal" font-weight="normal" text-decoration="none" x="800" y="180">UNREGISTERED</text><text fill="#eeeeee" stroke="none" font-family="Arial" font-size="24px" font-style="normal" font-weight="normal" text-decoration="none" x="800" y="210">UNREGISTERED</text><text fill="#eeeeee" stroke="none" font-family="Arial" font-size="24px" font-style="normal" font-weight="normal" text-decoration="none" x="800" y="240">UNREGISTERED</text><text fill="#eeeeee" stroke="none" font-family="Arial" font-size="24px" font-style="normal" font-weight="normal" text-decoration="none" x="800" y="270">UNREGISTERED</text><text fill="#eeeeee" stroke="none" font-family="Arial" font-size="24px" font-style="normal" font-weight="normal" text-decoration="none" x="800" y="300">UNREGISTERED</text><text fill="#eeeeee" stroke="none" font-family="Arial" font-size="24px" font-style="normal" font-weight="normal" text-decoration="none" x="800" y="330">UNREGISTERED</text><text fill="#eeeeee" stroke="none" font-family="Arial" font-size="24px" font-style="normal" font-weight="normal" text-decoration="none" x="800" y="360">UNREGISTERED</text><text fill="#eeeeee" stroke="none" font-family="Arial" font-size="24px" font-style="normal" font-weight="normal" text-decoration="none" x="800" y="390">UNREGISTERED</text><text fill="#eeeeee" stroke="none" font-family="Arial" font-size="24px" font-style="normal" font-weight="normal" text-decoration="none" x="800" y="420">UNREGISTERED</text><text fill="#eeeeee" stroke="none" font-family="Arial" font-size="24px" font-style="normal" font-weight="normal" text-decoration="none" x="800" y="450">UNREGISTERED</text><text fill="#eeeeee" stroke="none" font-family="Arial" font-size="24px" font-style="normal" font-weight="normal" text-decoration="none" x="800" y="480">UNREGISTERED</text><text fill="#eeeeee" stroke="none" font-family="Arial" font-size="24px" font-style="normal" font-weight="normal" text-decoration="none" x="800" y="510">UNREGISTERED</text><text fill="#eeeeee" stroke="none" font-family="Arial" font-size="24px" font-style="normal" font-weight="normal" text-decoration="none" x="800" y="540">UNREGISTERED</text><text fill="#eeeeee" stroke="none" font-family="Arial" font-size="24px" font-style="normal" font-weight="normal" text-decoration="none" x="800" y="570">UNREGISTERED</text><text fill="#eeeeee" stroke="none" font-family="Arial" font-size="24px" font-style="normal" font-weight="normal" text-decoration="none" x="800" y="600">UNREGISTERED</text><text fill="#eeeeee" stroke="none" font-family="Arial" font-size="24px" font-style="normal" font-weight="normal" text-decoration="none" x="800" y="630">UNREGISTERED</text><text fill="#eeeeee" stroke="none" font-family="Arial" font-size="24px" font-style="normal" font-weight="normal" text-decoration="none" x="1000" y="0">UNREGISTERED</text><text fill="#eeeeee" stroke="none" font-family="Arial" font-size="24px" font-style="normal" font-weight="normal" text-decoration="none" x="1000" y="30">UNREGISTERED</text><text fill="#eeeeee" stroke="none" font-family="Arial" font-size="24px" font-style="normal" font-weight="normal" text-decoration="none" x="1000" y="60">UNREGISTERED</text><text fill="#eeeeee" stroke="none" font-family="Arial" font-size="24px" font-style="normal" font-weight="normal" text-decoration="none" x="1000" y="90">UNREGISTERED</text><text fill="#eeeeee" stroke="none" font-family="Arial" font-size="24px" font-style="normal" font-weight="normal" text-decoration="none" x="1000" y="120">UNREGISTERED</text><text fill="#eeeeee" stroke="none" font-family="Arial" font-size="24px" font-style="normal" font-weight="normal" text-decoration="none" x="1000" y="150">UNREGISTERED</text><text fill="#eeeeee" stroke="none" font-family="Arial" font-size="24px" font-style="normal" font-weight="normal" text-decoration="none" x="1000" y="180">UNREGISTERED</text><text fill="#eeeeee" stroke="none" font-family="Arial" font-size="24px" font-style="normal" font-weight="normal" text-decoration="none" x="1000" y="210">UNREGISTERED</text><text fill="#eeeeee" stroke="none" font-family="Arial" font-size="24px" font-style="normal" font-weight="normal" text-decoration="none" x="1000" y="240">UNREGISTERED</text><text fill="#eeeeee" stroke="none" font-family="Arial" font-size="24px" font-style="normal" font-weight="normal" text-decoration="none" x="1000" y="270">UNREGISTERED</text><text fill="#eeeeee" stroke="none" font-family="Arial" font-size="24px" font-style="normal" font-weight="normal" text-decoration="none" x="1000" y="300">UNREGISTERED</text><text fill="#eeeeee" stroke="none" font-family="Arial" font-size="24px" font-style="normal" font-weight="normal" text-decoration="none" x="1000" y="330">UNREGISTERED</text><text fill="#eeeeee" stroke="none" font-family="Arial" font-size="24px" font-style="normal" font-weight="normal" text-decoration="none" x="1000" y="360">UNREGISTERED</text><text fill="#eeeeee" stroke="none" font-family="Arial" font-size="24px" font-style="normal" font-weight="normal" text-decoration="none" x="1000" y="390">UNREGISTERED</text><text fill="#eeeeee" stroke="none" font-family="Arial" font-size="24px" font-style="normal" font-weight="normal" text-decoration="none" x="1000" y="420">UNREGISTERED</text><text fill="#eeeeee" stroke="none" font-family="Arial" font-size="24px" font-style="normal" font-weight="normal" text-decoration="none" x="1000" y="450">UNREGISTERED</text><text fill="#eeeeee" stroke="none" font-family="Arial" font-size="24px" font-style="normal" font-weight="normal" text-decoration="none" x="1000" y="480">UNREGISTERED</text><text fill="#eeeeee" stroke="none" font-family="Arial" font-size="24px" font-style="normal" font-weight="normal" text-decoration="none" x="1000" y="510">UNREGISTERED</text><text fill="#eeeeee" stroke="none" font-family="Arial" font-size="24px" font-style="normal" font-weight="normal" text-decoration="none" x="1000" y="540">UNREGISTERED</text><text fill="#eeeeee" stroke="none" font-family="Arial" font-size="24px" font-style="normal" font-weight="normal" text-decoration="none" x="1000" y="570">UNREGISTERED</text><text fill="#eeeeee" stroke="none" font-family="Arial" font-size="24px" font-style="normal" font-weight="normal" text-decoration="none" x="1000" y="600">UNREGISTERED</text><text fill="#eeeeee" stroke="none" font-family="Arial" font-size="24px" font-style="normal" font-weight="normal" text-decoration="none" x="1000" y="630">UNREGISTERED</text><g transform="translate(-14,-150) scale(1,1)"><path fill="#C0C0C0" stroke="none" d="M 202.68017578125 226.5 C 202.68017578125 220.1487248 207.82890058125 215 214.18017578125 215 C 220.53145098125 215 225.68017578125 220.1487248 225.68017578125 226.5 C 225.68017578125 232.8512752 220.53145098125 238 214.18017578125 238 C 207.82890058125 238 202.68017578125 232.8512752 202.68017578125 226.5 Z" opacity="0.2"/></g><g transform="translate(-14,-150) scale(1,1)"><path fill="#ffffff" stroke="none" d="M 195.68017578125 219.5 C 195.68017578125 213.1487248 200.82890058125 208 207.18017578125 208 C 213.53145098125 208 218.68017578125 213.1487248 218.68017578125 219.5 C 218.68017578125 225.8512752 213.53145098125 231 207.18017578125 231 C 200.82890058125 231 195.68017578125 225.8512752 195.68017578125 219.5 Z"/></g><g transform="translate(-14,-150) scale(1,1)"><path fill="none" stroke="#000000" d="M 195.68017578125 219.5 C 195.68017578125 213.1487248 200.82890058125 208 207.18017578125 208 C 213.53145098125 208 218.68017578125 213.1487248 218.68017578125 219.5 C 218.68017578125 225.8512752 213.53145098125 231 207.18017578125 231 C 200.82890058125 231 195.68017578125 225.8512752 195.68017578125 219.5 Z" stroke-miterlimit="10"/></g><g transform="translate(-14,-150) scale(1,1)"><path fill="none" stroke="#000000" d="M 24 256 L 390.3603515625 256" stroke-miterlimit="10"/></g><g transform="translate(-14,-150) scale(1,1)"><path fill="none" stroke="#000000" d="M 24 339 L 390.3603515625 339" stroke-miterlimit="10"/></g><g transform="translate(-14,-150) scale(1,1)"><g><path fill="none" stroke="none"/><text fill="#000000" stroke="none" font-family="Arial" font-size="13px" font-style="normal" font-weight="bold" text-decoration="none" x="168.87841796875" y="250.5">ISudokuVIew</text></g></g><g transform="translate(-14,-150) scale(1,1)"><g><path fill="none" stroke="none"/><text fill="#000000" stroke="none" font-family="Arial" font-size="13px" font-style="normal" font-weight="normal" text-decoration="none" x="29" y="273.5">+doRefresh()</text></g></g><g transform="translate(-14,-150) scale(1,1)"><g><path fill="none" stroke="none"/><text fill="#000000" stroke="none" font-family="Arial" font-size="13px" font-style="normal" font-weight="normal" text-decoration="none" x="29" y="288.5">+doHL(x: int, y: int, col: boolean, row: boolean, cube: boolean)</text></g></g><g transform="translate(-14,-150) scale(1,1)"><g><path fill="none" stroke="none"/><text fill="#000000" stroke="none" font-family="Arial" font-size="13px" font-style="normal" font-weight="normal" text-decoration="none" x="29" y="303.5">+doBoom(x: int, y: int)</text></g></g><g transform="translate(-14,-150) scale(1,1)"><g><path fill="none" stroke="none"/><text fill="#000000" stroke="none" font-family="Arial" font-size="13px" font-style="normal" font-weight="normal" text-decoration="none" x="29" y="318.5">+update(data: GameData)</text></g></g><g transform="translate(-14,-150) scale(1,1)"><g><path fill="none" stroke="none"/><text fill="#000000" stroke="none" font-family="Arial" font-size="13px" font-style="normal" font-weight="normal" text-decoration="none" x="29" y="333.5">+setOnClickListener(listener: SudokuOnClickListener)</text></g></g><g transform="translate(-14,-150) scale(1,1)"><rect fill="#C0C0C0" stroke="none" x="135" y="527" width="152.533203125" height="184" opacity="0.2"/></g><g transform="translate(-14,-150) scale(1,1)"><rect fill="#ffffff" stroke="none" x="128" y="520" width="152.533203125" height="184"/></g><g transform="translate(-14,-150) scale(1,1)"><path fill="none" stroke="#000000" d="M 128 520 L 280.533203125 520 L 280.533203125 704 L 128 704 L 128 520 Z Z" stroke-miterlimit="10"/></g><g transform="translate(-14,-150) scale(1,1)"><path fill="none" stroke="#000000" d="M 128 545 L 280.533203125 545" stroke-miterlimit="10"/></g><g transform="translate(-14,-150) scale(1,1)"><path fill="none" stroke="#000000" d="M 128 628 L 280.533203125 628" stroke-miterlimit="10"/></g><g transform="translate(-14,-150) scale(1,1)"><g><path fill="none" stroke="none"/><text fill="#000000" stroke="none" font-family="Arial" font-size="13px" font-style="normal" font-weight="bold" text-decoration="none" x="168.25" y="539.5">SudokuView</text></g></g><g transform="translate(-14,-150) scale(1,1)"><g><path fill="none" stroke="none"/><text fill="#000000" stroke="none" font-family="Arial" font-size="13px" font-style="normal" font-weight="normal" text-decoration="none" x="133" y="562.5">-cellSpace: float</text></g></g><g transform="translate(-14,-150) scale(1,1)"><g><path fill="none" stroke="none"/><text fill="#000000" stroke="none" font-family="Arial" font-size="13px" font-style="normal" font-weight="normal" text-decoration="none" x="133" y="577.5">-blockSpace: float</text></g></g><g transform="translate(-14,-150) scale(1,1)"><g><path fill="none" stroke="none"/><text fill="#000000" stroke="none" font-family="Arial" font-size="13px" font-style="normal" font-weight="normal" text-decoration="none" x="133" y="592.5">-viewWidth: float</text></g></g><g transform="translate(-14,-150) scale(1,1)"><g><path fill="none" stroke="none"/><text fill="#000000" stroke="none" font-family="Arial" font-size="13px" font-style="normal" font-weight="normal" text-decoration="none" x="133" y="607.5">-viewHeight: float</text></g></g><g transform="translate(-14,-150) scale(1,1)"><g><path fill="none" stroke="none"/><text fill="#000000" stroke="none" font-family="Arial" font-size="13px" font-style="normal" font-weight="normal" text-decoration="none" x="133" y="622.5">-allCells: Grid&lt;CellView&gt;</text></g></g><g transform="translate(-14,-150) scale(1,1)"><g><path fill="none" stroke="none"/><text fill="#000000" stroke="none" font-family="Arial" font-size="13px" font-style="normal" font-weight="normal" text-decoration="none" x="133" y="645.5">-init()</text></g></g><g transform="translate(-14,-150) scale(1,1)"><path fill="none" stroke="#000000" d="M 205 519 L 206.9083969465649 231" stroke-miterlimit="10"/></g><g transform="translate(-14,-150) scale(1,1)"><rect fill="#C0C0C0" stroke="none" x="359" y="407" width="186.68359375" height="44" opacity="0.2"/></g><g transform="translate(-14,-150) scale(1,1)"><rect fill="#ffffff" stroke="none" x="352" y="400" width="186.68359375" height="44"/></g><g transform="translate(-14,-150) scale(1,1)"><path fill="none" stroke="#000000" d="M 352 400 L 538.68359375 400 L 538.68359375 444 L 352 444 L 352 400 Z Z" stroke-miterlimit="10"/></g><g transform="translate(-14,-150) scale(1,1)"><path fill="none" stroke="#000000" d="M 352 425 L 538.68359375 425" stroke-miterlimit="10"/></g><g transform="translate(-14,-150) scale(1,1)"><path fill="none" stroke="#000000" d="M 352 435 L 538.68359375 435" stroke-miterlimit="10"/></g><g transform="translate(-14,-150) scale(1,1)"><g><path fill="none" stroke="none"/><text fill="#000000" stroke="none" font-family="Arial" font-size="13px" font-style="normal" font-weight="bold" text-decoration="none" x="362.9619140625" y="419.5">android.widget.FrameLayout</text></g></g><g transform="translate(-14,-150) scale(1,1)"><path fill="none" stroke="#000000" d="M 282 551 L 416 445" stroke-miterlimit="10"/></g><g transform="translate(-14,-150) scale(1,1)"><path fill="#FFFFFF" stroke="none" d="M 405.2823666154239 464.2128169364573 L 416 445 L 394.8359756140302 451.0070018969596"/></g><g transform="translate(-14,-150) scale(1,1)"><path fill="none" stroke="#000000" d="M 405.2823666154239 464.2128169364573 L 416 445 L 394.8359756140302 451.0070018969596 L 405.2823666154239 464.2128169364573" stroke-miterlimit="10"/></g><g transform="translate(-14,-150) scale(1,1)"><rect fill="#C0C0C0" stroke="none" x="343" y="567" width="318.60693359375" height="65" opacity="0.2"/></g><g transform="translate(-14,-150) scale(1,1)"><rect fill="#ffffff" stroke="none" x="336" y="560" width="318.60693359375" height="65"/></g><g transform="translate(-14,-150) scale(1,1)"><path fill="none" stroke="#000000" d="M 336 560 L 654.60693359375 560 L 654.60693359375 625 L 336 625 L 336 560 Z Z" stroke-miterlimit="10"/></g><g transform="translate(-14,-150) scale(1,1)"><path fill="none" stroke="#000000" d="M 336 585 L 654.60693359375 585" stroke-miterlimit="10"/></g><g transform="translate(-14,-150) scale(1,1)"><path fill="none" stroke="#000000" d="M 336 595 L 654.60693359375 595" stroke-miterlimit="10"/></g><g transform="translate(-14,-150) scale(1,1)"><g><path fill="none" stroke="none"/><text fill="#000000" stroke="none" font-family="Arial" font-size="13px" font-style="normal" font-weight="bold" text-decoration="none" x="465.437744140625" y="579.5">BlockView</text></g></g><g transform="translate(-14,-150) scale(1,1)"><g><path fill="none" stroke="none"/><text fill="#000000" stroke="none" font-family="Arial" font-size="13px" font-style="normal" font-weight="normal" text-decoration="none" x="341" y="612.5">~init(row: int, col: int, w: float, h: float, cellSpace: float)</text></g></g><g transform="translate(-14,-150) scale(1,1)"><path fill="none" stroke="#000000" d="M 282 607 L 335 603" stroke-miterlimit="10"/></g><g transform="translate(-14,-150) scale(1,1)"><path fill="#000000" stroke="none" d="M 291.817056240281 602.0376007037764 L 282 607 L 292.45065323210747 610.4327608454773 L 303.9376106507055 605.3443312716448"/></g><g transform="translate(-14,-150) scale(1,1)"><path fill="none" stroke="#000000" d="M 291.817056240281 602.0376007037764 L 282 607 L 292.45065323210747 610.4327608454773 L 303.9376106507055 605.3443312716448 L 291.817056240281 602.0376007037764" stroke-miterlimit="10"/></g><g transform="translate(-14,-150) scale(1,1)"><rect fill="#C0C0C0" stroke="none" x="487" y="663" width="273.11328125" height="130" opacity="0.2"/></g><g transform="translate(-14,-150) scale(1,1)"><rect fill="#ffffff" stroke="none" x="480" y="656" width="273.11328125" height="130"/></g><g transform="translate(-14,-150) scale(1,1)"><path fill="none" stroke="#000000" d="M 480 656 L 753.11328125 656 L 753.11328125 786 L 480 786 L 480 656 Z Z" stroke-miterlimit="10"/></g><g transform="translate(-14,-150) scale(1,1)"><path fill="none" stroke="#000000" d="M 480 681 L 753.11328125 681" stroke-miterlimit="10"/></g><g transform="translate(-14,-150) scale(1,1)"><path fill="none" stroke="#000000" d="M 480 749 L 753.11328125 749" stroke-miterlimit="10"/></g><g transform="translate(-14,-150) scale(1,1)"><g><path fill="none" stroke="none"/><text fill="#000000" stroke="none" font-family="Arial" font-size="13px" font-style="normal" font-weight="bold" text-decoration="none" x="591.38818359375" y="675.5">CellView</text></g></g><g transform="translate(-14,-150) scale(1,1)"><g><path fill="none" stroke="none"/><text fill="#000000" stroke="none" font-family="Arial" font-size="13px" font-style="normal" font-weight="normal" text-decoration="none" x="485" y="698.5">-cellText: AppCompatTextView</text></g></g><g transform="translate(-14,-150) scale(1,1)"><g><path fill="none" stroke="none"/><text fill="#000000" stroke="none" font-family="Arial" font-size="13px" font-style="normal" font-weight="normal" text-decoration="none" x="485" y="713.5">-pencilText: Grid&lt;TextView&gt;</text></g></g><g transform="translate(-14,-150) scale(1,1)"><g><path fill="none" stroke="none"/><text fill="#000000" stroke="none" font-family="Arial" font-size="13px" font-style="normal" font-weight="normal" text-decoration="none" x="485" y="728.5">-value: int</text></g></g><g transform="translate(-14,-150) scale(1,1)"><g><path fill="none" stroke="none"/><text fill="#000000" stroke="none" font-family="Arial" font-size="13px" font-style="normal" font-weight="normal" text-decoration="none" x="485" y="743.5">-state: int</text></g></g><g transform="translate(-14,-150) scale(1,1)"><g><path fill="none" stroke="none"/><text fill="#000000" stroke="none" font-family="Arial" font-size="13px" font-style="normal" font-weight="normal" text-decoration="none" x="485" y="766.5">~init(row: int, col: int, squareSideLength: float)</text></g></g><g transform="translate(-14,-150) scale(1,1)"><g><path fill="none" stroke="none"/><text fill="#000000" stroke="none" font-family="Arial" font-size="13px" font-style="normal" font-weight="normal" text-decoration="none" x="485" y="781.5">~update(data: GameData)</text></g></g><g transform="translate(-14,-150) scale(1,1)"><path fill="none" stroke="#000000" d="M 527 626 L 554 655" stroke-miterlimit="10"/></g><g transform="translate(-14,-150) scale(1,1)"><path fill="#000000" stroke="none" d="M 537.0059556220899 630.5695570998474 L 527 626 L 530.8441142603102 636.3064438849527 L 541.9912076142145 642.1016674374897"/></g><g transform="translate(-14,-150) scale(1,1)"><path fill="none" stroke="#000000" d="M 537.0059556220899 630.5695570998474 L 527 626 L 530.8441142603102 636.3064438849527 L 541.9912076142145 642.1016674374897 L 537.0059556220899 630.5695570998474" stroke-miterlimit="10"/></g><g transform="translate(-14,-150) scale(1,1)"><path fill="none" stroke="#000000" d="M 485 559 L 452 445" stroke-miterlimit="10"/></g><g transform="translate(-14,-150) scale(1,1)"><path fill="#FFFFFF" stroke="none" d="M 465.73865230054133 462.18282377738973 L 452 445 L 449.5646029931512 466.86478541900266"/></g><g transform="translate(-14,-150) scale(1,1)"><path fill="none" stroke="#000000" d="M 465.73865230054133 462.18282377738973 L 452 445 L 449.5646029931512 466.86478541900266 L 465.73865230054133 462.18282377738973" stroke-miterlimit="10"/></g><g transform="translate(-14,-150) scale(1,1)"><path fill="none" stroke="#000000" d="M 578 655 L 458 445" stroke-miterlimit="10"/></g><g transform="translate(-14,-150) scale(1,1)"><path fill="#FFFFFF" stroke="none" d="M 475.39396727607874 458.47033416061765 L 458 445 L 460.77442758283064 466.8243568424737"/></g><g transform="translate(-14,-150) scale(1,1)"><path fill="none" stroke="#000000" d="M 475.39396727607874 458.47033416061765 L 458 445 L 460.77442758283064 466.8243568424737 L 475.39396727607874 458.47033416061765" stroke-miterlimit="10"/></g><g transform="translate(-14,-150) scale(1,1)"><rect fill="#C0C0C0" stroke="none" x="479" y="199" width="333.111328125" height="160" opacity="0.2"/></g><g transform="translate(-14,-150) scale(1,1)"><rect fill="#ffffff" stroke="none" x="472" y="192" width="333.111328125" height="160"/></g><g transform="translate(-14,-150) scale(1,1)"><path fill="none" stroke="#000000" d="M 472 192 L 805.111328125 192 L 805.111328125 352 L 472 352 L 472 192 Z Z" stroke-miterlimit="10"/></g><g transform="translate(-14,-150) scale(1,1)"><path fill="none" stroke="#000000" d="M 472 217 L 805.111328125 217" stroke-miterlimit="10"/></g><g transform="translate(-14,-150) scale(1,1)"><path fill="none" stroke="#000000" d="M 472 270 L 805.111328125 270" stroke-miterlimit="10"/></g><g transform="translate(-14,-150) scale(1,1)"><g><path fill="none" stroke="none"/><text fill="#000000" stroke="none" font-family="Arial" font-size="13px" font-style="normal" font-weight="bold" text-decoration="none" x="581.58544921875" y="211.5">SudokuViewControl</text></g></g><g transform="translate(-14,-150) scale(1,1)"><g><path fill="none" stroke="none"/><text fill="#000000" stroke="none" font-family="Arial" font-size="13px" font-style="normal" font-weight="normal" text-decoration="none" x="477" y="234.5">-ISudokuView</text></g></g><g transform="translate(-14,-150) scale(1,1)"><g><path fill="none" stroke="none"/><text fill="#000000" stroke="none" font-family="Arial" font-size="13px" font-style="normal" font-weight="normal" text-decoration="none" x="477" y="249.5">-pluginList: List&lt;IPlugin&gt;</text></g></g><g transform="translate(-14,-150) scale(1,1)"><g><path fill="none" stroke="none"/><text fill="#000000" stroke="none" font-family="Arial" font-size="13px" font-style="normal" font-weight="normal" text-decoration="none" x="477" y="264.5">-gameRules: IGameRules</text></g></g><g transform="translate(-14,-150) scale(1,1)"><g><path fill="none" stroke="none"/><text fill="#000000" stroke="none" font-family="Arial" font-size="13px" font-style="normal" font-weight="normal" text-decoration="none" x="477" y="287.5">+setView(view: ISudokuView)</text></g></g><g transform="translate(-14,-150) scale(1,1)"><g><path fill="none" stroke="none"/><text fill="#000000" stroke="none" font-family="Arial" font-size="13px" font-style="normal" font-weight="normal" text-decoration="none" x="477" y="302.5">+registerPlugin(plugin: IPlugin)</text></g></g><g transform="translate(-14,-150) scale(1,1)"><g><path fill="none" stroke="none"/><text fill="#000000" stroke="none" font-family="Arial" font-size="13px" font-style="normal" font-weight="normal" text-decoration="none" x="477" y="317.5">+execAction(action: Action, params Params)</text></g></g><g transform="translate(-14,-150) scale(1,1)"><g><path fill="none" stroke="none"/><text fill="#000000" stroke="none" font-family="Arial" font-size="13px" font-style="normal" font-weight="normal" text-decoration="none" x="477" y="332.5">+setSudokuStateListener(listener: SudokuStateListener)</text></g></g><g transform="translate(-14,-150) scale(1,1)"><g><path fill="none" stroke="none"/><text fill="#000000" stroke="none" font-family="Arial" font-size="13px" font-style="normal" font-weight="normal" text-decoration="none" x="477" y="347.5">+setGameRules(gameRules: IGameRules)</text></g></g><g transform="translate(-14,-150) scale(1,1)"><path fill="none" stroke="#000000" d="M 471 274 L 391 275" stroke-miterlimit="10"/></g><g transform="translate(-14,-150) scale(1,1)"><path fill="#FFFFFF" stroke="none" d="M 460.89073386989384 278.3362124383716 L 471 274 L 460.7855041467445 269.91783458642044 L 449.0017185486102 274.2749785181424"/></g><g transform="translate(-14,-150) scale(1,1)"><path fill="none" stroke="#000000" d="M 460.89073386989384 278.3362124383716 L 471 274 L 460.7855041467445 269.91783458642044 L 449.0017185486102 274.2749785181424 L 460.89073386989384 278.3362124383716" stroke-miterlimit="10"/></g><g transform="translate(-14,-150) scale(1,1)"><path fill="none" stroke="#000000" d="M 750 353 L 803 391" stroke-miterlimit="10"/></g><g transform="translate(-14,-150) scale(1,1)"><path fill="#FFFFFF" stroke="none" d="M 760.7120007996356 355.5006076998617 L 750 353 L 755.8063317438385 362.3427250671575 L 767.8793143068924 365.81913101248887"/></g><g transform="translate(-14,-150) scale(1,1)"><path fill="none" stroke="#000000" d="M 760.7120007996356 355.5006076998617 L 750 353 L 755.8063317438385 362.3427250671575 L 767.8793143068924 365.81913101248887 L 760.7120007996356 355.5006076998617" stroke-miterlimit="10"/></g><g transform="translate(-14,-150) scale(1,1)"><path fill="#C0C0C0" stroke="none" d="M 931.83056640625 410.5 C 931.83056640625 404.1487248 936.97929120625 399 943.33056640625 399 C 949.68184160625 399 954.83056640625 404.1487248 954.83056640625 410.5 C 954.83056640625 416.8512752 949.68184160625 422 943.33056640625 422 C 936.97929120625 422 931.83056640625 416.8512752 931.83056640625 410.5 Z" opacity="0.2"/></g><g transform="translate(-14,-150) scale(1,1)"><path fill="#ffffff" stroke="none" d="M 924.83056640625 403.5 C 924.83056640625 397.1487248 929.97929120625 392 936.33056640625 392 C 942.68184160625 392 947.83056640625 397.1487248 947.83056640625 403.5 C 947.83056640625 409.8512752 942.68184160625 415 936.33056640625 415 C 929.97929120625 415 924.83056640625 409.8512752 924.83056640625 403.5 Z"/></g><g transform="translate(-14,-150) scale(1,1)"><path fill="none" stroke="#000000" d="M 924.83056640625 403.5 C 924.83056640625 397.1487248 929.97929120625 392 936.33056640625 392 C 942.68184160625 392 947.83056640625 397.1487248 947.83056640625 403.5 C 947.83056640625 409.8512752 942.68184160625 415 936.33056640625 415 C 929.97929120625 415 924.83056640625 409.8512752 924.83056640625 403.5 Z" stroke-miterlimit="10"/></g><g transform="translate(-14,-150) scale(1,1)"><path fill="none" stroke="#000000" d="M 784 440 L 1088.6611328125 440" stroke-miterlimit="10"/></g><g transform="translate(-14,-150) scale(1,1)"><g><path fill="none" stroke="none"/><text fill="#000000" stroke="none" font-family="Arial" font-size="13px" font-style="normal" font-weight="bold" text-decoration="none" x="916.4560546875" y="434.5">IPlugin</text></g></g><g transform="translate(-14,-150) scale(1,1)"><g><path fill="none" stroke="none"/><text fill="#000000" stroke="none" font-family="Arial" font-size="13px" font-style="normal" font-weight="normal" text-decoration="none" x="789" y="457.5">+init(control: SudokuViewControl)</text></g></g><g transform="translate(-14,-150) scale(1,1)"><g><path fill="none" stroke="none"/><text fill="#000000" stroke="none" font-family="Arial" font-size="13px" font-style="normal" font-weight="normal" text-decoration="none" x="789" y="472.5">+willFill(params: Params, x: int, y: int, value: int)</text></g></g><g transform="translate(-14,-150) scale(1,1)"><g><path fill="none" stroke="none"/><text fill="#000000" stroke="none" font-family="Arial" font-size="13px" font-style="normal" font-weight="normal" text-decoration="none" x="789" y="487.5">+didFill(params: Params, x: int, y: int, value: int)</text></g></g><g transform="translate(-14,-150) scale(1,1)"><g><path fill="none" stroke="none"/><text fill="#000000" stroke="none" font-family="Arial" font-size="13px" font-style="normal" font-weight="normal" text-decoration="none" x="789" y="502.5">+willClear(params: Params, x: int, y: int)</text></g></g><g transform="translate(-14,-150) scale(1,1)"><g><path fill="none" stroke="none"/><text fill="#000000" stroke="none" font-family="Arial" font-size="13px" font-style="normal" font-weight="normal" text-decoration="none" x="789" y="517.5">+didClear(params: Params, x: int, y: int)</text></g></g><g transform="translate(-14,-150) scale(1,1)"><g><path fill="none" stroke="none"/><text fill="#000000" stroke="none" font-family="Arial" font-size="13px" font-style="normal" font-weight="normal" text-decoration="none" x="789" y="532.5">+willReload(params: Params)</text></g></g><g transform="translate(-14,-150) scale(1,1)"><g><path fill="none" stroke="none"/><text fill="#000000" stroke="none" font-family="Arial" font-size="13px" font-style="normal" font-weight="normal" text-decoration="none" x="789" y="547.5">+didReload(params: Params)</text></g></g><g transform="translate(-14,-150) scale(1,1)"><g><path fill="none" stroke="none"/><text fill="#000000" stroke="none" font-family="Arial" font-size="13px" font-style="normal" font-weight="normal" text-decoration="none" x="789" y="562.5">+gameStart(params: Params, data: GameData)</text></g></g><g transform="translate(-14,-150) scale(1,1)"><g><path fill="none" stroke="none"/><text fill="#000000" stroke="none" font-family="Arial" font-size="13px" font-style="normal" font-weight="normal" text-decoration="none" x="789" y="577.5">+gameEnd(params: Params, isWin: boolean)</text></g></g><g transform="translate(-14,-150) scale(1,1)"><path fill="#C0C0C0" stroke="none" d="M 999.91943359375 178.5 C 999.91943359375 172.1487248 1005.06815839375 167 1011.41943359375 167 C 1017.77070879375 167 1022.91943359375 172.1487248 1022.91943359375 178.5 C 1022.91943359375 184.8512752 1017.77070879375 190 1011.41943359375 190 C 1005.06815839375 190 999.91943359375 184.8512752 999.91943359375 178.5 Z" opacity="0.2"/></g><g transform="translate(-14,-150) scale(1,1)"><path fill="#ffffff" stroke="none" d="M 992.91943359375 171.5 C 992.91943359375 165.1487248 998.06815839375 160 1004.41943359375 160 C 1010.77070879375 160 1015.91943359375 165.1487248 1015.91943359375 171.5 C 1015.91943359375 177.8512752 1010.77070879375 183 1004.41943359375 183 C 998.06815839375 183 992.91943359375 177.8512752 992.91943359375 171.5 Z"/></g><g transform="translate(-14,-150) scale(1,1)"><path fill="none" stroke="#000000" d="M 992.91943359375 171.5 C 992.91943359375 165.1487248 998.06815839375 160 1004.41943359375 160 C 1010.77070879375 160 1015.91943359375 165.1487248 1015.91943359375 171.5 C 1015.91943359375 177.8512752 1010.77070879375 183 1004.41943359375 183 C 998.06815839375 183 992.91943359375 177.8512752 992.91943359375 171.5 Z" stroke-miterlimit="10"/></g><g transform="translate(-14,-150) scale(1,1)"><path fill="none" stroke="#000000" d="M 904 208 L 1104.8388671875 208" stroke-miterlimit="10"/></g><g transform="translate(-14,-150) scale(1,1)"><g><path fill="none" stroke="none"/><text fill="#000000" stroke="none" font-family="Arial" font-size="13px" font-style="normal" font-weight="bold" text-decoration="none" x="968.294921875" y="202.5">IGameRules</text></g></g><g transform="translate(-14,-150) scale(1,1)"><g><path fill="none" stroke="none"/><text fill="#000000" stroke="none" font-family="Arial" font-size="13px" font-style="normal" font-weight="normal" text-decoration="none" x="909" y="225.5">+setGameData(data: GameData)</text></g></g><g transform="translate(-14,-150) scale(1,1)"><g><path fill="none" stroke="none"/><text fill="#000000" stroke="none" font-family="Arial" font-size="13px" font-style="normal" font-weight="normal" text-decoration="none" x="909" y="240.5">+isWin()</text></g></g><g transform="translate(-14,-150) scale(1,1)"><g><path fill="none" stroke="none"/><text fill="#000000" stroke="none" font-family="Arial" font-size="13px" font-style="normal" font-weight="normal" text-decoration="none" x="909" y="255.5">+isFail()</text></g></g><g transform="translate(-14,-150) scale(1,1)"><g><path fill="none" stroke="none"/><text fill="#000000" stroke="none" font-family="Arial" font-size="13px" font-style="normal" font-weight="normal" text-decoration="none" x="909" y="270.5">+isFullRow(row: int)</text></g></g><g transform="translate(-14,-150) scale(1,1)"><g><path fill="none" stroke="none"/><text fill="#000000" stroke="none" font-family="Arial" font-size="13px" font-style="normal" font-weight="normal" text-decoration="none" x="909" y="285.5">+isFullCol(col: int)</text></g></g><g transform="translate(-14,-150) scale(1,1)"><g><path fill="none" stroke="none"/><text fill="#000000" stroke="none" font-family="Arial" font-size="13px" font-style="normal" font-weight="normal" text-decoration="none" x="909" y="300.5">+isFullCube(row: int, col: int)</text></g></g><g transform="translate(-14,-150) scale(1,1)"><path fill="none" stroke="#000000" d="M 903 244 L 806 254" stroke-miterlimit="10"/></g><g transform="translate(-14,-150) scale(1,1)"><path fill="#FFFFFF" stroke="none" d="M 815.6774135092685 248.77050023705635 L 806 254 L 816.540779461341 257.1451499721592 L 827.8840143753941 251.7439160437738"/></g><g transform="translate(-14,-150) scale(1,1)"><path fill="none" stroke="#000000" d="M 815.6774135092685 248.77050023705635 L 806 254 L 816.540779461341 257.1451499721592 L 827.8840143753941 251.7439160437738 L 815.6774135092685 248.77050023705635" stroke-miterlimit="10"/></g></g></svg>